<svg width="352" height="44" viewBox="0 0 352 44" fill="none" xmlns="http://www.w3.org/2000/svg">
<g filter="url(#filter0_d)">
<path fill-rule="evenodd" clip-rule="evenodd" d="M19.9294 31.8588L23.2881 28.5L10.7175 15.9294L23.2881 3.35876L19.9294 0L4 15.9294L19.9294 31.8588ZM35.1631 28.5L22.5925 15.9294L35.1631 3.35876L31.8044 0L15.875 15.9294L31.8044 31.8588L35.1631 28.5Z" fill="#F2AD43"/>
<path fill-rule="evenodd" clip-rule="evenodd" d="M331.234 -0.000360489L327.875 3.35839L340.446 15.929L327.875 28.4996L331.234 31.8584L347.163 15.929L331.234 -0.000360489ZM316 3.35839L328.571 15.929L316 28.4996L319.359 31.8584L335.288 15.929L319.359 -0.000360489L316 3.35839Z" fill="#F2AD43"/>
<path d="M62.5385 15.457C63.2416 15.457 63.851 15.7148 64.3666 16.2305C64.8588 16.7227 65.1049 17.332 65.1049 18.0586C65.1049 19.793 65.1049 22.3828 65.1049 25.8281C65.1049 26.5547 64.8588 27.1641 64.3666 27.6562C63.851 28.1719 63.2416 28.4297 62.5385 28.4297C60.8041 28.4297 58.2025 28.4297 54.7338 28.4297C53.5853 28.4297 51.8627 28.4297 49.5658 28.4297C49.5658 27.2812 49.5658 25.5586 49.5658 23.2617C49.5658 22.0898 49.5658 20.3555 49.5658 18.0586C49.5658 16.9102 49.5658 15.1875 49.5658 12.8906C49.5658 12.3047 49.5658 11.5781 49.5658 10.7109C49.5658 9.84375 49.5658 8.83594 49.5658 7.6875C49.5658 6.53906 49.5658 4.81641 49.5658 2.51953C50.7142 2.51953 52.4369 2.51953 54.7338 2.51953C56.4681 2.51953 59.0697 2.51953 62.5385 2.51953C63.2416 2.51953 63.851 2.76562 64.3666 3.25781C64.8588 3.77344 65.1049 4.38281 65.1049 5.08594C65.1049 6.82031 65.1049 9.42188 65.1049 12.8906C65.1049 13.5938 64.8588 14.2031 64.3666 14.7188C63.851 15.2109 63.2416 15.457 62.5385 15.457ZM54.7338 12.8906C55.9056 12.8906 57.64 12.8906 59.9369 12.8906C59.9369 12.6797 59.9369 12.375 59.9369 11.9766C59.9369 11.0156 59.9369 9.58594 59.9369 7.6875C58.7885 7.6875 57.0541 7.6875 54.7338 7.6875C54.7338 8.83594 54.7338 10.5703 54.7338 12.8906ZM54.7338 23.2617C55.9056 23.2617 57.64 23.2617 59.9369 23.2617C59.9369 23.0508 59.9369 22.7461 59.9369 22.3477C59.9369 21.3867 59.9369 19.957 59.9369 18.0586C58.7885 18.0586 57.0541 18.0586 54.7338 18.0586C54.7338 19.207 54.7338 20.9414 54.7338 23.2617ZM85.847 28.4297C84.6986 28.4297 82.976 28.4297 80.6791 28.4297C80.6791 26.1328 80.6791 22.6758 80.6791 18.0586C79.5306 18.0586 77.7963 18.0586 75.476 18.0586C75.476 20.3555 75.476 23.8125 75.476 28.4297C74.3275 28.4297 72.6049 28.4297 70.308 28.4297C70.308 26.4844 70.308 23.5547 70.308 19.6406C70.308 18.0234 70.308 16.0078 70.308 13.5938C70.308 11.1562 70.308 8.32031 70.308 5.08594C70.308 4.38281 70.5658 3.77344 71.0814 3.25781C71.5736 2.76562 72.183 2.51953 72.9095 2.51953C75.2064 2.51953 78.6635 2.51953 83.2806 2.51953C83.9838 2.51953 84.5931 2.76562 85.1088 3.25781C85.601 3.77344 85.847 4.38281 85.847 5.08594C85.847 10.2891 85.847 18.0703 85.847 28.4297ZM80.6791 12.8906C80.6791 12.6797 80.6791 12.375 80.6791 11.9766C80.6791 11.0156 80.6791 9.58594 80.6791 7.6875C79.5306 7.6875 77.7963 7.6875 75.476 7.6875C75.476 8.83594 75.476 10.5703 75.476 12.8906C76.6478 12.8906 78.3822 12.8906 80.6791 12.8906ZM101.421 10.2891C101.421 9.70313 101.421 8.83594 101.421 7.6875C100.273 7.6875 98.5385 7.6875 96.2181 7.6875C96.2181 11.1562 96.2181 16.3477 96.2181 23.2617C97.39 23.2617 99.1244 23.2617 101.421 23.2617C101.421 22.6758 101.421 21.8086 101.421 20.6602C102.57 20.6602 104.292 20.6602 106.589 20.6602C106.589 21.8086 106.589 23.5312 106.589 25.8281C106.589 26.5547 106.343 27.1641 105.851 27.6562C105.335 28.1719 104.726 28.4297 104.023 28.4297C101.703 28.4297 98.2455 28.4297 93.6517 28.4297C92.9252 28.4297 92.3158 28.1719 91.8236 27.6562C91.308 27.1641 91.0502 26.5547 91.0502 25.8281C91.0502 24.0938 91.0502 21.4922 91.0502 18.0234C91.0502 16.5938 91.0502 14.8125 91.0502 12.6797C91.0502 10.5 91.0502 7.96875 91.0502 5.08594C91.0502 4.38281 91.308 3.77344 91.8236 3.25781C92.3158 2.76562 92.9252 2.51953 93.6517 2.51953C95.9486 2.51953 99.4056 2.51953 104.023 2.51953C104.726 2.51953 105.335 2.76562 105.851 3.25781C106.343 3.77344 106.589 4.38281 106.589 5.08594C106.589 6.25781 106.589 7.99219 106.589 10.2891C105.441 10.2891 103.718 10.2891 101.421 10.2891ZM127.331 15.457C127.331 18.3398 127.331 22.6641 127.331 28.4297C126.183 28.4297 124.46 28.4297 122.163 28.4297C122.163 26.1328 122.163 22.6758 122.163 18.0586C121.015 18.0586 119.281 18.0586 116.96 18.0586C116.96 20.3555 116.96 23.8125 116.96 28.4297C115.812 28.4297 114.089 28.4297 111.792 28.4297C111.792 25.5469 111.792 21.9492 111.792 17.6367C111.792 13.3242 111.792 8.28516 111.792 2.51953C112.941 2.51953 114.663 2.51953 116.96 2.51953C116.96 4.81641 116.96 8.27344 116.96 12.8906C117.218 12.8906 117.593 12.8906 118.085 12.8906C119.023 10.5703 120.429 7.11328 122.304 2.51953C123.593 2.51953 125.538 2.51953 128.14 2.51953C127.062 4.81641 125.445 8.27344 123.288 12.8906C123.617 12.8906 124.109 12.8906 124.765 12.8906C125.468 12.8906 126.078 13.1367 126.593 13.6289C127.085 14.1445 127.331 14.7539 127.331 15.457ZM169.624 2.51953C167.046 2.51953 161.867 2.51953 154.085 2.51953C154.085 2.94141 154.085 3.58594 154.085 4.45312C154.085 5.32031 154.085 6.39844 154.085 7.6875C154.953 7.6875 156.675 7.6875 159.253 7.6875C159.253 11.1562 159.253 18.0703 159.253 28.4297C160.12 28.4297 161.855 28.4297 164.456 28.4297C164.456 24.9844 164.456 18.0703 164.456 7.6875C165.324 7.6875 167.046 7.6875 169.624 7.6875C169.624 6.53906 169.624 4.81641 169.624 2.51953ZM190.367 5.08594C190.367 9.70313 190.367 16.6172 190.367 25.8281C190.367 26.5547 190.12 27.1641 189.628 27.6562C189.113 28.1719 188.503 28.4297 187.8 28.4297C185.48 28.4297 182.023 28.4297 177.429 28.4297C176.703 28.4297 176.093 28.1719 175.601 27.6562C175.085 27.1641 174.828 26.5547 174.828 25.8281C174.828 24.0938 174.828 21.4922 174.828 18.0234C174.828 16.5938 174.828 14.8125 174.828 12.6797C174.828 10.5 174.828 7.96875 174.828 5.08594C174.828 4.38281 175.085 3.77344 175.601 3.25781C176.093 2.76562 176.703 2.51953 177.429 2.51953C179.726 2.51953 183.183 2.51953 187.8 2.51953C188.503 2.51953 189.113 2.76562 189.628 3.25781C190.12 3.77344 190.367 4.38281 190.367 5.08594ZM179.995 23.2617C181.167 23.2617 182.902 23.2617 185.199 23.2617C185.199 23.0273 185.199 22.6875 185.199 22.2422C185.199 19.0078 185.199 14.1562 185.199 7.6875C184.05 7.6875 182.316 7.6875 179.995 7.6875C179.995 9.42188 179.995 12.0117 179.995 15.457C179.995 17.1914 179.995 19.793 179.995 23.2617ZM242.222 5.08594C242.222 10.2891 242.222 18.0703 242.222 28.4297C241.074 28.4297 239.351 28.4297 237.054 28.4297C237.054 23.8125 237.054 16.8984 237.054 7.6875C235.906 7.6875 234.171 7.6875 231.851 7.6875C231.851 12.3047 231.851 19.2188 231.851 28.4297C230.703 28.4297 228.98 28.4297 226.683 28.4297C226.683 23.8125 226.683 16.8984 226.683 7.6875C225.535 7.6875 223.8 7.6875 221.48 7.6875C221.48 12.3047 221.48 19.2188 221.48 28.4297C220.331 28.4297 218.609 28.4297 216.312 28.4297C216.312 26.4844 216.312 23.5547 216.312 19.6406C216.312 18.0234 216.312 16.0078 216.312 13.5938C216.312 11.1562 216.312 8.32031 216.312 5.08594C216.312 4.38281 216.57 3.77344 217.085 3.25781C217.578 2.76562 218.187 2.51953 218.913 2.51953C220.624 2.51953 223.214 2.51953 226.683 2.51953C227.41 2.51953 228.019 2.76562 228.511 3.25781C229.027 3.77344 229.285 4.38281 229.285 5.08594C229.285 4.38281 229.531 3.77344 230.023 3.25781C230.538 2.76562 231.148 2.51953 231.851 2.51953C233.585 2.51953 236.187 2.51953 239.656 2.51953C240.359 2.51953 240.968 2.76562 241.484 3.25781C241.976 3.77344 242.222 4.38281 242.222 5.08594ZM262.964 7.6875C262.964 6.82031 262.964 5.09766 262.964 2.51953C261.253 2.51953 257.796 2.51953 252.593 2.51953C251.749 2.51953 250.027 2.51953 247.425 2.51953C247.425 3.38672 247.425 5.10937 247.425 7.6875C247.425 8.55469 247.425 10.2891 247.425 12.8906C247.425 13.7344 247.425 15.457 247.425 18.0586C247.425 18.9258 247.425 20.6602 247.425 23.2617C247.425 23.8242 247.425 24.5391 247.425 25.4062C247.425 26.2734 247.425 27.2812 247.425 28.4297C248.574 28.4297 250.296 28.4297 252.593 28.4297C254.913 28.4297 258.37 28.4297 262.964 28.4297C262.964 27.2812 262.964 25.5586 262.964 23.2617C260.667 23.2617 257.21 23.2617 252.593 23.2617C252.593 22.0898 252.593 20.3555 252.593 18.0586C254.328 18.0586 256.929 18.0586 260.398 18.0586C260.398 16.9102 260.398 15.1875 260.398 12.8906C258.663 12.8906 256.062 12.8906 252.593 12.8906C252.593 11.7188 252.593 9.98438 252.593 7.6875C254.913 7.6875 258.37 7.6875 262.964 7.6875ZM283.706 5.08594C283.706 10.2891 283.706 18.0703 283.706 28.4297C282.558 28.4297 280.835 28.4297 278.538 28.4297C278.538 23.8125 278.538 16.8984 278.538 7.6875C277.39 7.6875 275.656 7.6875 273.335 7.6875C273.335 12.3047 273.335 19.2188 273.335 28.4297C272.187 28.4297 270.464 28.4297 268.167 28.4297C268.167 25.5469 268.167 21.9492 268.167 17.6367C268.167 13.3242 268.167 8.28516 268.167 2.51953C269.316 2.51953 271.038 2.51953 273.335 2.51953C275.07 2.51953 277.671 2.51953 281.14 2.51953C281.843 2.51953 282.453 2.76562 282.968 3.25781C283.46 3.77344 283.706 4.38281 283.706 5.08594ZM304.449 2.51953C304.449 7.69922 304.449 15.4688 304.449 25.8281C304.449 26.5547 304.203 27.1641 303.71 27.6562C303.195 28.1719 302.585 28.4297 301.882 28.4297C299.562 28.4297 296.105 28.4297 291.511 28.4297C290.785 28.4297 290.175 28.1719 289.683 27.6562C289.167 27.1641 288.91 26.5547 288.91 25.8281C288.91 23.25 288.91 20.0156 288.91 16.125C288.91 12.2344 288.91 7.69922 288.91 2.51953C290.058 2.51953 291.781 2.51953 294.078 2.51953C294.078 7.11328 294.078 14.0273 294.078 23.2617C295.249 23.2617 296.984 23.2617 299.281 23.2617C299.281 18.6445 299.281 11.7305 299.281 2.51953C300.429 2.51953 302.152 2.51953 304.449 2.51953Z" fill="#F2AD43"/>
</g>
<defs>
<filter id="filter0_d" x="0" y="0" width="351.163" height="43.8588" filterUnits="userSpaceOnUse" color-interpolation-filters="sRGB">
<feFlood flood-opacity="0" result="BackgroundImageFix"/>
<feColorMatrix in="SourceAlpha" type="matrix" values="0 0 0 0 0 0 0 0 0 0 0 0 0 0 0 0 0 0 127 0"/>
<feOffset dy="8"/>
<feGaussianBlur stdDeviation="2"/>
<feColorMatrix type="matrix" values="0 0 0 0 0 0 0 0 0 0 0 0 0 0 0 0 0 0 0.25 0"/>
<feBlend mode="normal" in2="BackgroundImageFix" result="effect1_dropShadow"/>
<feBlend mode="normal" in="SourceGraphic" in2="effect1_dropShadow" result="shape"/>
</filter>
</defs>
</svg>
