<svg width="288" height="44" viewBox="0 0 288 44" fill="none" xmlns="http://www.w3.org/2000/svg">
<g filter="url(#filter0_d)">
<path fill-rule="evenodd" clip-rule="evenodd" d="M19.9294 31.8588L23.2881 28.5L10.7175 15.9294L23.2881 3.35876L19.9294 0L4 15.9294L19.9294 31.8588ZM35.1631 28.5L22.5925 15.9294L35.1631 3.35876L31.8044 0L15.875 15.9294L31.8044 31.8588L35.1631 28.5Z" fill="#F2AD43"/>
<path d="M57.6602 22.832C57.6602 19.3633 57.6602 12.4492 57.6602 2.08984C56.8164 2.08984 55.0938 2.08984 52.4922 2.08984C52.4922 4.24609 52.4922 7.48047 52.4922 11.793C52.4922 16.1055 52.4922 21.5078 52.4922 28C52.7031 28 53.1367 28 53.793 28C54.4492 28 55.7383 28 57.6602 28C59.3945 28 62.8516 28 68.0312 28C68.0312 27.1328 68.0312 25.4102 68.0312 22.832C65.7344 22.832 62.2773 22.832 57.6602 22.832ZM88.7734 7.25781C88.7734 6.39063 88.7734 4.66797 88.7734 2.08984C87.0625 2.08984 83.6055 2.08984 78.4023 2.08984C77.5586 2.08984 75.8359 2.08984 73.2344 2.08984C73.2344 2.95703 73.2344 4.67969 73.2344 7.25781C73.2344 8.125 73.2344 9.85938 73.2344 12.4609C73.2344 13.3047 73.2344 15.0273 73.2344 17.6289C73.2344 18.1914 73.2344 18.9062 73.2344 19.7734C73.2344 20.6406 73.2344 21.6602 73.2344 22.832C73.2344 23.9805 73.2344 25.7031 73.2344 28C74.3828 28 76.1055 28 78.4023 28C80.7227 28 84.1797 28 88.7734 28C88.7734 26.8516 88.7734 25.1289 88.7734 22.832C86.4766 22.832 83.0195 22.832 78.4023 22.832C78.4023 21.6602 78.4023 19.9258 78.4023 17.6289C80.1367 17.6289 82.7383 17.6289 86.207 17.6289C86.207 16.4805 86.207 14.7578 86.207 12.4609C84.4727 12.4609 81.8711 12.4609 78.4023 12.4609C78.4023 11.2891 78.4023 9.55469 78.4023 7.25781C80.7227 7.25781 84.1797 7.25781 88.7734 7.25781ZM109.516 28C108.367 28 106.645 28 104.348 28C104.348 25.7031 104.348 22.2461 104.348 17.6289C103.199 17.6289 101.465 17.6289 99.1445 17.6289C99.1445 19.9258 99.1445 23.3828 99.1445 28C97.9961 28 96.2734 28 93.9766 28C93.9766 26.0547 93.9766 23.125 93.9766 19.2109C93.9766 17.5938 93.9766 15.5781 93.9766 13.1641C93.9766 10.7266 93.9766 7.89062 93.9766 4.65625C93.9766 3.95312 94.2344 3.34375 94.75 2.82812C95.2422 2.33594 95.8516 2.08984 96.5781 2.08984C98.875 2.08984 102.332 2.08984 106.949 2.08984C107.652 2.08984 108.262 2.33594 108.777 2.82812C109.27 3.34375 109.516 3.95312 109.516 4.65625C109.516 9.85938 109.516 17.6406 109.516 28ZM104.348 12.4609C104.348 12.25 104.348 11.9453 104.348 11.5469C104.348 10.5859 104.348 9.15625 104.348 7.25781C103.199 7.25781 101.465 7.25781 99.1445 7.25781C99.1445 8.40625 99.1445 10.1406 99.1445 12.4609C100.316 12.4609 102.051 12.4609 104.348 12.4609ZM114.016 2.08984C114.977 2.08984 116.91 2.08984 119.816 2.08984C120.473 5.20703 121.773 11.4648 123.719 20.8633C124.375 17.7461 125.676 11.4883 127.621 2.08984C128.582 2.08984 130.516 2.08984 133.422 2.08984C132.25 6.40234 129.883 15.0391 126.32 28C125.453 28 123.719 28 121.117 28C119.547 22.2344 117.18 13.5977 114.016 2.08984ZM153.426 7.25781C153.426 6.39063 153.426 4.66797 153.426 2.08984C151.715 2.08984 148.258 2.08984 143.055 2.08984C142.211 2.08984 140.488 2.08984 137.887 2.08984C137.887 2.95703 137.887 4.67969 137.887 7.25781C137.887 8.125 137.887 9.85938 137.887 12.4609C137.887 13.3047 137.887 15.0273 137.887 17.6289C137.887 18.1914 137.887 18.9062 137.887 19.7734C137.887 20.6406 137.887 21.6602 137.887 22.832C137.887 23.9805 137.887 25.7031 137.887 28C139.035 28 140.758 28 143.055 28C145.375 28 148.832 28 153.426 28C153.426 26.8516 153.426 25.1289 153.426 22.832C151.129 22.832 147.672 22.832 143.055 22.832C143.055 21.6602 143.055 19.9258 143.055 17.6289C144.789 17.6289 147.391 17.6289 150.859 17.6289C150.859 16.4805 150.859 14.7578 150.859 12.4609C149.125 12.4609 146.523 12.4609 143.055 12.4609C143.055 11.2891 143.055 9.55469 143.055 7.25781C145.375 7.25781 148.832 7.25781 153.426 7.25781ZM184.539 22.832C184.539 19.3633 184.539 12.4492 184.539 2.08984C183.695 2.08984 181.973 2.08984 179.371 2.08984C179.371 4.24609 179.371 7.48047 179.371 11.793C179.371 16.1055 179.371 21.5078 179.371 28C179.582 28 180.016 28 180.672 28C181.328 28 182.617 28 184.539 28C186.273 28 189.73 28 194.91 28C194.91 27.1328 194.91 25.4102 194.91 22.832C192.613 22.832 189.156 22.832 184.539 22.832ZM215.652 4.65625C215.652 9.27344 215.652 16.1875 215.652 25.3984C215.652 26.125 215.406 26.7344 214.914 27.2266C214.398 27.7422 213.789 28 213.086 28C210.766 28 207.309 28 202.715 28C201.988 28 201.379 27.7422 200.887 27.2266C200.371 26.7344 200.113 26.125 200.113 25.3984C200.113 23.6641 200.113 21.0625 200.113 17.5938C200.113 16.1641 200.113 14.3828 200.113 12.25C200.113 10.0703 200.113 7.53906 200.113 4.65625C200.113 3.95312 200.371 3.34375 200.887 2.82812C201.379 2.33594 201.988 2.08984 202.715 2.08984C205.012 2.08984 208.469 2.08984 213.086 2.08984C213.789 2.08984 214.398 2.33594 214.914 2.82812C215.406 3.34375 215.652 3.95312 215.652 4.65625ZM205.281 22.832C206.453 22.832 208.188 22.832 210.484 22.832C210.484 22.5977 210.484 22.2578 210.484 21.8125C210.484 18.5781 210.484 13.7266 210.484 7.25781C209.336 7.25781 207.602 7.25781 205.281 7.25781C205.281 8.99219 205.281 11.582 205.281 15.0273C205.281 16.7617 205.281 19.3633 205.281 22.832ZM233.828 15.0273C234.531 15.0273 235.141 15.2852 235.656 15.8008C236.148 16.293 236.395 16.9023 236.395 17.6289C236.395 19.3633 236.395 21.9531 236.395 25.3984C236.395 26.125 236.148 26.7344 235.656 27.2266C235.141 27.7422 234.531 28 233.828 28C232.094 28 229.492 28 226.023 28C224.875 28 223.152 28 220.855 28C220.855 26.8516 220.855 25.1289 220.855 22.832C220.855 21.6602 220.855 19.9258 220.855 17.6289C220.855 16.4805 220.855 14.7578 220.855 12.4609C220.855 11.875 220.855 11.1484 220.855 10.2812C220.855 9.41406 220.855 8.40625 220.855 7.25781C220.855 6.10938 220.855 4.38672 220.855 2.08984C222.004 2.08984 223.727 2.08984 226.023 2.08984C227.758 2.08984 230.359 2.08984 233.828 2.08984C234.531 2.08984 235.141 2.33594 235.656 2.82812C236.148 3.34375 236.395 3.95312 236.395 4.65625C236.395 6.39063 236.395 8.99219 236.395 12.4609C236.395 13.1641 236.148 13.7734 235.656 14.2891C235.141 14.7812 234.531 15.0273 233.828 15.0273ZM226.023 12.4609C227.195 12.4609 228.93 12.4609 231.227 12.4609C231.227 12.25 231.227 11.9453 231.227 11.5469C231.227 10.5859 231.227 9.15625 231.227 7.25781C230.078 7.25781 228.344 7.25781 226.023 7.25781C226.023 8.40625 226.023 10.1406 226.023 12.4609ZM226.023 22.832C227.195 22.832 228.93 22.832 231.227 22.832C231.227 22.6211 231.227 22.3164 231.227 21.918C231.227 20.957 231.227 19.5273 231.227 17.6289C230.078 17.6289 228.344 17.6289 226.023 17.6289C226.023 18.7773 226.023 20.5117 226.023 22.832ZM254.57 15.0273C255.273 15.0273 255.883 15.2852 256.398 15.8008C256.891 16.293 257.137 16.9023 257.137 17.6289C257.137 19.3633 257.137 21.9531 257.137 25.3984C257.137 26.125 256.891 26.7344 256.398 27.2266C255.883 27.7422 255.273 28 254.57 28C252.836 28 250.234 28 246.766 28C245.617 28 243.895 28 241.598 28C241.598 26.8516 241.598 25.1289 241.598 22.832C241.598 21.6602 241.598 19.9258 241.598 17.6289C241.598 16.4805 241.598 14.7578 241.598 12.4609C241.598 11.875 241.598 11.1484 241.598 10.2812C241.598 9.41406 241.598 8.40625 241.598 7.25781C241.598 6.10938 241.598 4.38672 241.598 2.08984C242.746 2.08984 244.469 2.08984 246.766 2.08984C248.5 2.08984 251.102 2.08984 254.57 2.08984C255.273 2.08984 255.883 2.33594 256.398 2.82812C256.891 3.34375 257.137 3.95312 257.137 4.65625C257.137 6.39063 257.137 8.99219 257.137 12.4609C257.137 13.1641 256.891 13.7734 256.398 14.2891C255.883 14.7812 255.273 15.0273 254.57 15.0273ZM246.766 12.4609C247.938 12.4609 249.672 12.4609 251.969 12.4609C251.969 12.25 251.969 11.9453 251.969 11.5469C251.969 10.5859 251.969 9.15625 251.969 7.25781C250.82 7.25781 249.086 7.25781 246.766 7.25781C246.766 8.40625 246.766 10.1406 246.766 12.4609ZM246.766 22.832C247.938 22.832 249.672 22.832 251.969 22.832C251.969 22.6211 251.969 22.3164 251.969 21.918C251.969 20.957 251.969 19.5273 251.969 17.6289C250.82 17.6289 249.086 17.6289 246.766 17.6289C246.766 18.7773 246.766 20.5117 246.766 22.832ZM275.242 2.08984C274.586 3.49609 273.285 6.29687 271.34 10.4922C270.684 9.08594 269.383 6.28516 267.438 2.08984C266.477 2.08984 264.543 2.08984 261.637 2.08984C262.809 4.45703 265.176 9.20313 268.738 16.3281C268.738 18.2734 268.738 22.1641 268.738 28C269.605 28 271.34 28 273.941 28C273.941 25.3984 273.941 21.5078 273.941 16.3281C275.512 13.1641 277.879 8.41797 281.043 2.08984C279.754 2.08984 277.82 2.08984 275.242 2.08984Z" fill="#F2AD43"/>
</g>
<defs>
<filter id="filter0_d" x="0" y="0" width="285.043" height="43.8588" filterUnits="userSpaceOnUse" color-interpolation-filters="sRGB">
<feFlood flood-opacity="0" result="BackgroundImageFix"/>
<feColorMatrix in="SourceAlpha" type="matrix" values="0 0 0 0 0 0 0 0 0 0 0 0 0 0 0 0 0 0 127 0"/>
<feOffset dy="8"/>
<feGaussianBlur stdDeviation="2"/>
<feColorMatrix type="matrix" values="0 0 0 0 0 0 0 0 0 0 0 0 0 0 0 0 0 0 0.25 0"/>
<feBlend mode="normal" in2="BackgroundImageFix" result="effect1_dropShadow"/>
<feBlend mode="normal" in="SourceGraphic" in2="effect1_dropShadow" result="shape"/>
</filter>
</defs>
</svg>
