<svg width="397" height="44" viewBox="0 0 397 44" fill="none" xmlns="http://www.w3.org/2000/svg">
<g filter="url(#filter0_d)">
<path fill-rule="evenodd" clip-rule="evenodd" d="M19.9294 31.8588L23.2881 28.5L10.7175 15.9294L23.2881 3.35876L19.9294 0L4 15.9294L19.9294 31.8588ZM35.1631 28.5L22.5925 15.9294L35.1631 3.35876L31.8044 0L15.875 15.9294L31.8044 31.8588L35.1631 28.5Z" fill="#F2AD43"/>
<path fill-rule="evenodd" clip-rule="evenodd" d="M376.234 0.000127792L372.875 3.35888L385.446 15.9295L372.875 28.5001L376.234 31.8589L392.163 15.9295L376.234 0.000127792ZM361 3.35888L373.571 15.9295L361 28.5001L364.359 31.8589L380.288 15.9295L364.359 0.000127792L361 3.35888Z" fill="#F2AD43"/>
<path d="M111.396 6.65625C111.396 11.8594 111.396 19.6406 111.396 30C110.248 30 108.525 30 106.229 30C106.229 25.3828 106.229 18.4688 106.229 9.25781C105.08 9.25781 103.346 9.25781 101.025 9.25781C101.025 13.875 101.025 20.7891 101.025 30C99.877 30 98.1543 30 95.8574 30C95.8574 27.1172 95.8574 23.5195 95.8574 19.207C95.8574 14.8945 95.8574 9.85547 95.8574 4.08984C97.0059 4.08984 98.7285 4.08984 101.025 4.08984C102.76 4.08984 105.361 4.08984 108.83 4.08984C109.533 4.08984 110.143 4.33594 110.658 4.82812C111.15 5.34375 111.396 5.95312 111.396 6.65625ZM132.139 9.25781C132.139 8.39063 132.139 6.66797 132.139 4.08984C130.428 4.08984 126.971 4.08984 121.768 4.08984C120.924 4.08984 119.201 4.08984 116.6 4.08984C116.6 4.95703 116.6 6.67969 116.6 9.25781C116.6 10.125 116.6 11.8594 116.6 14.4609C116.6 15.3047 116.6 17.0273 116.6 19.6289C116.6 20.1914 116.6 20.9062 116.6 21.7734C116.6 22.6406 116.6 23.6602 116.6 24.832C116.6 25.9805 116.6 27.7031 116.6 30C117.748 30 119.471 30 121.768 30C124.088 30 127.545 30 132.139 30C132.139 28.8516 132.139 27.1289 132.139 24.832C129.842 24.832 126.385 24.832 121.768 24.832C121.768 23.6602 121.768 21.9258 121.768 19.6289C123.502 19.6289 126.104 19.6289 129.572 19.6289C129.572 18.4805 129.572 16.7578 129.572 14.4609C127.838 14.4609 125.236 14.4609 121.768 14.4609C121.768 13.2891 121.768 11.5547 121.768 9.25781C124.088 9.25781 127.545 9.25781 132.139 9.25781ZM149.26 17.0273C150.385 14.8711 152.646 10.5586 156.045 4.08984C155.084 4.08984 153.15 4.08984 150.244 4.08984C149.588 5.49609 148.287 8.29687 146.342 12.4922C145.686 11.0859 144.385 8.28516 142.439 4.08984C141.479 4.08984 139.545 4.08984 136.639 4.08984C137.764 6.24609 140.025 10.5586 143.424 17.0273C141.924 19.9102 139.662 24.2344 136.639 30C137.928 30 139.861 30 142.439 30C143.307 28.125 144.607 25.3125 146.342 21.5625C147.209 23.4375 148.51 26.25 150.244 30C151.533 30 153.467 30 156.045 30C154.545 27.1172 152.283 22.793 149.26 17.0273ZM176.049 4.08984C173.471 4.08984 168.291 4.08984 160.51 4.08984C160.51 4.51172 160.51 5.15625 160.51 6.02344C160.51 6.89062 160.51 7.96875 160.51 9.25781C161.377 9.25781 163.1 9.25781 165.678 9.25781C165.678 12.7266 165.678 19.6406 165.678 30C166.545 30 168.279 30 170.881 30C170.881 26.5547 170.881 19.6406 170.881 9.25781C172.029 9.25781 173.752 9.25781 176.049 9.25781C176.049 8.10938 176.049 6.38672 176.049 4.08984ZM214.967 17.0273C215.67 17.0273 216.279 17.2852 216.795 17.8008C217.287 18.293 217.533 18.9023 217.533 19.6289C217.533 21.9258 217.533 25.3828 217.533 30C216.385 30 214.662 30 212.365 30C212.365 27.7031 212.365 24.2461 212.365 19.6289C211.217 19.6289 209.482 19.6289 207.162 19.6289C207.162 21.9258 207.162 25.3828 207.162 30C206.014 30 204.291 30 201.994 30C201.994 27.7031 201.994 24.2461 201.994 19.6289C201.994 18.4805 201.994 16.7578 201.994 14.4609C201.994 13.3125 201.994 11.8711 201.994 10.1367C201.994 8.40234 201.994 6.38672 201.994 4.08984C203.143 4.08984 204.865 4.08984 207.162 4.08984C208.896 4.08984 211.498 4.08984 214.967 4.08984C215.67 4.08984 216.279 4.33594 216.795 4.82812C217.287 5.34375 217.533 5.95312 217.533 6.65625C217.533 8.39063 217.533 10.9922 217.533 14.4609C217.533 15.1641 217.287 15.7734 216.795 16.2891C216.279 16.7812 215.67 17.0273 214.967 17.0273ZM212.365 14.4609C212.365 14.25 212.365 13.9453 212.365 13.5469C212.365 12.5859 212.365 11.1562 212.365 9.25781C211.217 9.25781 209.482 9.25781 207.162 9.25781C207.162 10.4062 207.162 12.1406 207.162 14.4609C208.334 14.4609 210.068 14.4609 212.365 14.4609ZM238.275 6.65625C238.275 11.2734 238.275 18.1875 238.275 27.3984C238.275 28.125 238.029 28.7344 237.537 29.2266C237.021 29.7422 236.412 30 235.709 30C233.389 30 229.932 30 225.338 30C224.611 30 224.002 29.7422 223.51 29.2266C222.994 28.7344 222.736 28.125 222.736 27.3984C222.736 25.6641 222.736 23.0625 222.736 19.5938C222.736 18.1641 222.736 16.3828 222.736 14.25C222.736 12.0703 222.736 9.53906 222.736 6.65625C222.736 5.95312 222.994 5.34375 223.51 4.82812C224.002 4.33594 224.611 4.08984 225.338 4.08984C227.635 4.08984 231.092 4.08984 235.709 4.08984C236.412 4.08984 237.021 4.33594 237.537 4.82812C238.029 5.34375 238.275 5.95312 238.275 6.65625ZM227.904 24.832C229.076 24.832 230.811 24.832 233.107 24.832C233.107 24.5977 233.107 24.2578 233.107 23.8125C233.107 20.5781 233.107 15.7266 233.107 9.25781C231.959 9.25781 230.225 9.25781 227.904 9.25781C227.904 10.9922 227.904 13.582 227.904 17.0273C227.904 18.7617 227.904 21.3633 227.904 24.832ZM259.018 4.08984C259.018 9.26953 259.018 17.0391 259.018 27.3984C259.018 28.125 258.771 28.7344 258.279 29.2266C257.764 29.7422 257.154 30 256.451 30C254.131 30 250.674 30 246.08 30C245.354 30 244.744 29.7422 244.252 29.2266C243.736 28.7344 243.479 28.125 243.479 27.3984C243.479 24.8203 243.479 21.5859 243.479 17.6953C243.479 13.8047 243.479 9.26953 243.479 4.08984C244.627 4.08984 246.35 4.08984 248.646 4.08984C248.646 8.68359 248.646 15.5977 248.646 24.832C249.818 24.832 251.553 24.832 253.85 24.832C253.85 20.2148 253.85 13.3008 253.85 4.08984C254.998 4.08984 256.721 4.08984 259.018 4.08984ZM279.76 6.65625C279.76 11.8594 279.76 19.6406 279.76 30C278.611 30 276.889 30 274.592 30C274.592 25.3828 274.592 18.4688 274.592 9.25781C273.443 9.25781 271.709 9.25781 269.389 9.25781C269.389 13.875 269.389 20.7891 269.389 30C268.24 30 266.518 30 264.221 30C264.221 27.1172 264.221 23.5195 264.221 19.207C264.221 14.8945 264.221 9.85547 264.221 4.08984C265.369 4.08984 267.092 4.08984 269.389 4.08984C271.123 4.08984 273.725 4.08984 277.193 4.08984C277.896 4.08984 278.506 4.33594 279.021 4.82812C279.514 5.34375 279.76 5.95312 279.76 6.65625ZM300.502 6.65625C300.502 11.2734 300.502 18.1875 300.502 27.3984C300.502 28.125 300.256 28.7344 299.764 29.2266C299.248 29.7422 298.639 30 297.936 30C296.201 30 293.6 30 290.131 30C289.568 30 288.713 30 287.564 30C286.979 30 286.111 30 284.963 30C284.963 27.1172 284.963 23.5195 284.963 19.207C284.963 14.8945 284.963 9.85547 284.963 4.08984C285.971 4.08984 287.482 4.08984 289.498 4.08984C289.639 4.08984 289.85 4.08984 290.131 4.08984C291.865 4.08984 294.467 4.08984 297.936 4.08984C298.639 4.08984 299.248 4.33594 299.764 4.82812C300.256 5.34375 300.502 5.95312 300.502 6.65625ZM290.131 24.832C291.303 24.832 293.037 24.832 295.334 24.832C295.334 24.5977 295.334 24.2578 295.334 23.8125C295.334 20.5781 295.334 15.7266 295.334 9.25781C294.186 9.25781 292.451 9.25781 290.131 9.25781C290.131 10.9922 290.131 13.582 290.131 17.0273C290.131 18.7617 290.131 21.3633 290.131 24.832Z" fill="#F2AD43"/>
</g>
<defs>
<filter id="filter0_d" x="0" y="0" width="396.163" height="43.8588" filterUnits="userSpaceOnUse" color-interpolation-filters="sRGB">
<feFlood flood-opacity="0" result="BackgroundImageFix"/>
<feColorMatrix in="SourceAlpha" type="matrix" values="0 0 0 0 0 0 0 0 0 0 0 0 0 0 0 0 0 0 127 0"/>
<feOffset dy="8"/>
<feGaussianBlur stdDeviation="2"/>
<feColorMatrix type="matrix" values="0 0 0 0 0 0 0 0 0 0 0 0 0 0 0 0 0 0 0.25 0"/>
<feBlend mode="normal" in2="BackgroundImageFix" result="effect1_dropShadow"/>
<feBlend mode="normal" in="SourceGraphic" in2="effect1_dropShadow" result="shape"/>
</filter>
</defs>
</svg>
