<svg width="588" height="127" viewBox="0 0 588 127" fill="none" xmlns="http://www.w3.org/2000/svg">
<rect x="1.5" y="1.5" width="585" height="124" rx="8.5" fill="#252525" stroke="#F2AD43" stroke-width="3"/>
<path d="M178.062 58.9375C179.312 58.9375 180.396 59.3958 181.312 60.3125C182.188 61.1875 182.625 62.2708 182.625 63.5625C182.625 67.6458 182.625 73.7917 182.625 82C180.583 82 177.521 82 173.438 82C173.438 77.9167 173.438 71.7708 173.438 63.5625C171.396 63.5625 168.312 63.5625 164.188 63.5625C164.188 67.6458 164.188 73.7917 164.188 82C162.146 82 159.083 82 155 82C155 77.9167 155 71.7708 155 63.5625C155 61.5208 155 58.4583 155 54.375C155 52.3333 155 49.7708 155 46.6875C155 43.6042 155 40.0208 155 35.9375C157.042 35.9375 160.104 35.9375 164.188 35.9375C167.271 35.9375 171.896 35.9375 178.062 35.9375C179.312 35.9375 180.396 36.375 181.312 37.25C182.188 38.1667 182.625 39.25 182.625 40.5C182.625 43.5833 182.625 48.2083 182.625 54.375C182.625 55.625 182.188 56.7083 181.312 57.625C180.396 58.5 179.312 58.9375 178.062 58.9375ZM173.438 54.375C173.438 54 173.438 53.4583 173.438 52.75C173.438 51.0417 173.438 48.5 173.438 45.125C171.396 45.125 168.312 45.125 164.188 45.125C164.188 47.1667 164.188 50.25 164.188 54.375C166.271 54.375 169.354 54.375 173.438 54.375ZM219.5 82C217.458 82 214.396 82 210.312 82C210.312 77.9167 210.312 71.7708 210.312 63.5625C208.271 63.5625 205.188 63.5625 201.062 63.5625C201.062 67.6458 201.062 73.7917 201.062 82C199.021 82 195.958 82 191.875 82C191.875 78.5417 191.875 73.3333 191.875 66.375C191.875 63.5 191.875 59.9167 191.875 55.625C191.875 51.2917 191.875 46.25 191.875 40.5C191.875 39.25 192.333 38.1667 193.25 37.25C194.125 36.375 195.208 35.9375 196.5 35.9375C200.583 35.9375 206.729 35.9375 214.938 35.9375C216.188 35.9375 217.271 36.375 218.188 37.25C219.062 38.1667 219.5 39.25 219.5 40.5C219.5 49.75 219.5 63.5833 219.5 82ZM210.312 54.375C210.312 54 210.312 53.4583 210.312 52.75C210.312 51.0417 210.312 48.5 210.312 45.125C208.271 45.125 205.188 45.125 201.062 45.125C201.062 47.1667 201.062 50.25 201.062 54.375C203.146 54.375 206.229 54.375 210.312 54.375ZM256.375 40.5C256.375 49.75 256.375 63.5833 256.375 82C254.333 82 251.271 82 247.188 82C247.188 73.7917 247.188 61.5 247.188 45.125C245.146 45.125 242.062 45.125 237.938 45.125C237.938 53.3333 237.938 65.625 237.938 82C235.896 82 232.833 82 228.75 82C228.75 76.875 228.75 70.4792 228.75 62.8125C228.75 55.1458 228.75 46.1875 228.75 35.9375C230.792 35.9375 233.854 35.9375 237.938 35.9375C241.021 35.9375 245.646 35.9375 251.812 35.9375C253.062 35.9375 254.146 36.375 255.062 37.25C255.938 38.1667 256.375 39.25 256.375 40.5ZM293.25 58.9375C293.25 64.0625 293.25 71.75 293.25 82C291.208 82 288.146 82 284.062 82C284.062 77.9167 284.062 71.7708 284.062 63.5625C282.021 63.5625 278.938 63.5625 274.812 63.5625C274.812 67.6458 274.812 73.7917 274.812 82C272.771 82 269.708 82 265.625 82C265.625 76.875 265.625 70.4792 265.625 62.8125C265.625 55.1458 265.625 46.1875 265.625 35.9375C267.667 35.9375 270.729 35.9375 274.812 35.9375C274.812 40.0208 274.812 46.1667 274.812 54.375C275.271 54.375 275.938 54.375 276.812 54.375C278.479 50.25 280.979 44.1042 284.312 35.9375C286.604 35.9375 290.062 35.9375 294.688 35.9375C292.771 40.0208 289.896 46.1667 286.062 54.375C286.646 54.375 287.521 54.375 288.688 54.375C289.938 54.375 291.021 54.8125 291.938 55.6875C292.812 56.6042 293.25 57.6875 293.25 58.9375ZM303.938 35.9375C305.479 35.9375 308.542 35.9375 313.125 35.9375C313.125 41.6875 313.125 53.2083 313.125 70.5C313.125 72.4167 313.125 76.25 313.125 82C311.625 82 308.562 82 303.938 82C303.938 78.1667 303.938 72.4167 303.938 64.75C303.938 57.0833 303.938 47.4792 303.938 35.9375ZM350 40.5C350 49.75 350 63.5833 350 82C347.958 82 344.896 82 340.812 82C340.812 73.7917 340.812 61.5 340.812 45.125C338.771 45.125 335.688 45.125 331.562 45.125C331.562 53.3333 331.562 65.625 331.562 82C329.521 82 326.458 82 322.375 82C322.375 76.875 322.375 70.4792 322.375 62.8125C322.375 55.1458 322.375 46.1875 322.375 35.9375C324.417 35.9375 327.479 35.9375 331.562 35.9375C334.646 35.9375 339.271 35.9375 345.438 35.9375C346.688 35.9375 347.771 36.375 348.688 37.25C349.562 38.1667 350 39.25 350 40.5ZM377.688 49.75C377.688 48.7083 377.688 47.1667 377.688 45.125C375.646 45.125 372.562 45.125 368.438 45.125C368.438 51.2917 368.438 60.5208 368.438 72.8125C370.521 72.8125 373.604 72.8125 377.688 72.8125C377.688 70.7292 377.688 67.6458 377.688 63.5625C376.646 63.5625 375.104 63.5625 373.062 63.5625C373.062 61.5208 373.062 58.4583 373.062 54.375C376.146 54.375 380.75 54.375 386.875 54.375C386.875 56.4167 386.875 59.4792 386.875 63.5625C386.875 66.6458 386.875 71.25 386.875 77.375C386.875 78.6667 386.438 79.75 385.562 80.625C384.646 81.5417 383.562 82 382.312 82C378.188 82 372.042 82 363.875 82C362.583 82 361.5 81.5417 360.625 80.625C359.708 79.75 359.25 78.6667 359.25 77.375C359.25 74.2917 359.25 69.6667 359.25 63.5C359.25 60.9583 359.25 57.7917 359.25 54C359.25 50.125 359.25 45.625 359.25 40.5C359.25 39.25 359.708 38.1667 360.625 37.25C361.5 36.375 362.583 35.9375 363.875 35.9375C367.958 35.9375 374.104 35.9375 382.312 35.9375C383.562 35.9375 384.646 36.375 385.562 37.25C386.438 38.1667 386.875 39.25 386.875 40.5C386.875 42.5833 386.875 45.6667 386.875 49.75C384.833 49.75 381.771 49.75 377.688 49.75ZM414.562 49.75C414.562 48.7083 414.562 47.1667 414.562 45.125C412.521 45.125 409.438 45.125 405.312 45.125C405.312 47.1667 405.312 50.25 405.312 54.375C408.396 54.375 413.021 54.375 419.188 54.375C420.438 54.375 421.521 54.8125 422.438 55.6875C423.312 56.6042 423.75 57.6875 423.75 58.9375C423.75 63.0625 423.75 69.2083 423.75 77.375C423.75 78.6667 423.312 79.75 422.438 80.625C421.521 81.5417 420.438 82 419.188 82C415.062 82 408.917 82 400.75 82C399.458 82 398.375 81.5417 397.5 80.625C396.583 79.75 396.125 78.6667 396.125 77.375C396.125 75.3333 396.125 72.2708 396.125 68.1875C398.167 68.1875 401.229 68.1875 405.312 68.1875C405.312 69.1875 405.312 70.7292 405.312 72.8125C407.396 72.8125 410.479 72.8125 414.562 72.8125C414.562 70.7292 414.562 67.6458 414.562 63.5625C411.479 63.5625 406.875 63.5625 400.75 63.5625C399.458 63.5625 398.375 63.125 397.5 62.25C396.583 61.3333 396.125 60.2292 396.125 58.9375C396.125 56.8958 396.125 54.3333 396.125 51.25C396.125 48.1667 396.125 44.5833 396.125 40.5C396.125 39.25 396.583 38.1667 397.5 37.25C398.375 36.375 399.458 35.9375 400.75 35.9375C404.833 35.9375 410.979 35.9375 419.188 35.9375C420.438 35.9375 421.521 36.375 422.438 37.25C423.312 38.1667 423.75 39.25 423.75 40.5C423.75 42.5833 423.75 45.6667 423.75 49.75C421.708 49.75 418.646 49.75 414.562 49.75Z" fill="#F2AD43"/>
<path fill-rule="evenodd" clip-rule="evenodd" d="M507.062 58.1093C508.678 55.8405 508.498 53.4509 507.377 49.1526C505.16 40.6518 506.043 35.9924 513.685 30.4761L517.415 27.7837L518.318 32.2947C519.276 37.0887 520.851 40.0538 524.894 45.7573C525.055 45.9839 525.055 45.9839 525.216 46.2114C531.04 54.4275 533.167 59.3804 533.167 68.3748C533.167 79.2862 522.136 89.0832 509.5 89.0832C496.863 89.0832 485.833 79.2875 485.833 68.3748C485.833 68.1709 485.834 68.177 485.799 67.2757C485.532 60.3039 486.821 54.8475 492.037 48.9559C493.139 47.7111 494.392 46.5147 495.802 45.37L498.914 42.8428L500.411 46.5618C501.517 49.3098 502.813 51.4699 504.277 53.0551C505.517 54.3978 506.437 56.0861 507.062 58.1093ZM496.467 52.8779C492.451 57.4132 491.497 61.4539 491.711 67.0488C491.751 68.0903 491.75 68.0537 491.75 68.3746C491.75 75.853 499.985 83.1663 509.5 83.1663C519.014 83.1663 527.25 75.8517 527.25 68.3746C527.25 60.8552 525.569 56.9408 520.389 49.6327C520.228 49.4063 520.228 49.4063 520.067 49.1787C516.921 44.7408 515.046 41.6537 513.805 38.2012C511.779 40.6289 511.898 43.0436 513.102 47.6594C515.319 56.1602 514.436 60.8196 506.794 66.3359L502.436 69.4812L502.11 64.117C501.901 60.6896 501.125 58.3623 499.931 57.0693C498.751 55.7919 497.686 54.2963 496.731 52.5854C496.641 52.6826 496.554 52.7801 496.467 52.8779Z" fill="#F2AD43"/>
<path fill-rule="evenodd" clip-rule="evenodd" d="M76.0618 58.1093C77.6783 55.8405 77.4979 53.4509 76.377 49.1526C74.1601 40.6518 75.0429 35.9924 82.6853 30.4761L86.4154 27.7837L87.3176 32.2947C88.2764 37.0887 89.851 40.0538 93.8939 45.7573C94.0546 45.9839 94.0546 45.9839 94.2159 46.2114C100.04 54.4275 102.167 59.3804 102.167 68.3748C102.167 79.2862 91.1361 89.0832 78.5 89.0832C65.8632 89.0832 54.8333 79.2875 54.8333 68.3748C54.8333 68.1709 54.8335 68.177 54.799 67.2757C54.5317 60.3039 55.8209 54.8475 61.0372 48.9559C62.1393 47.7111 63.392 46.5147 64.8018 45.37L67.914 42.8428L69.411 46.5618C70.5172 49.3098 71.8133 51.4699 73.2774 53.0551C74.5175 54.3978 75.4374 56.0861 76.0618 58.1093ZM65.467 52.8779C61.4515 57.4132 60.4968 61.4539 60.7113 67.0488C60.7512 68.0903 60.75 68.0537 60.75 68.3746C60.75 75.853 68.9848 83.1663 78.5 83.1663C88.0144 83.1663 96.25 75.8517 96.25 68.3746C96.25 60.8552 94.5689 56.9408 89.3888 49.6327C89.2283 49.4063 89.2283 49.4063 89.067 49.1787C85.9211 44.7408 84.0459 41.6537 82.8054 38.2012C80.7793 40.6289 80.8985 43.0436 82.1022 47.6594C84.3191 56.1602 83.4363 60.8196 75.7939 66.3359L71.4363 69.4812L71.1096 64.117C70.9009 60.6896 70.1252 58.3623 68.931 57.0693C67.7511 55.7919 66.6858 54.2963 65.7305 52.5854C65.6414 52.6826 65.5536 52.7801 65.467 52.8779Z" fill="#F2AD43"/>
</svg>
