<svg width="330" height="44" viewBox="0 0 330 44" fill="none" xmlns="http://www.w3.org/2000/svg">
<g filter="url(#filter0_d)">
<path fill-rule="evenodd" clip-rule="evenodd" d="M19.9294 31.8588L23.2881 28.5L10.7175 15.9294L23.2881 3.35876L19.9294 0L4 15.9294L19.9294 31.8588ZM35.1631 28.5L22.5925 15.9294L35.1631 3.35876L31.8044 0L15.875 15.9294L31.8044 31.8588L35.1631 28.5Z" fill="#F2AD43"/>
<path fill-rule="evenodd" clip-rule="evenodd" d="M309.234 0.000127792L305.875 3.35888L318.446 15.9295L305.875 28.5001L309.234 31.8589L325.163 15.9295L309.234 0.000127792ZM294 3.35888L306.571 15.9295L294 28.5001L297.359 31.8589L313.288 15.9295L297.359 0.000127792L294 3.35888Z" fill="#F2AD43"/>
<path d="M69.0834 10.2886C69.0834 9.70264 69.0834 8.83545 69.0834 7.68701C67.9349 7.68701 66.2006 7.68701 63.8802 7.68701C63.8802 8.83545 63.8802 10.5698 63.8802 12.8901C65.6146 12.8901 68.2162 12.8901 71.6849 12.8901C72.3881 12.8901 72.9974 13.1362 73.5131 13.6284C74.0052 14.144 74.2513 14.7534 74.2513 15.4565C74.2513 17.7769 74.2513 21.2339 74.2513 25.8276C74.2513 26.5542 74.0052 27.1636 73.5131 27.6558C72.9974 28.1714 72.3881 28.4292 71.6849 28.4292C69.3646 28.4292 65.9076 28.4292 61.3138 28.4292C60.5873 28.4292 59.9779 28.1714 59.4857 27.6558C58.9701 27.1636 58.7123 26.5542 58.7123 25.8276C58.7123 24.6792 58.7123 22.9565 58.7123 20.6597C59.8607 20.6597 61.5834 20.6597 63.8802 20.6597C63.8802 21.2222 63.8802 22.0894 63.8802 23.2612C65.0521 23.2612 66.7865 23.2612 69.0834 23.2612C69.0834 22.0894 69.0834 20.355 69.0834 18.0581C67.349 18.0581 64.7592 18.0581 61.3138 18.0581C60.5873 18.0581 59.9779 17.812 59.4857 17.3198C58.9701 16.8042 58.7123 16.1831 58.7123 15.4565C58.7123 14.3081 58.7123 12.8667 58.7123 11.1323C58.7123 9.39795 58.7123 7.38232 58.7123 5.08545C58.7123 4.38232 58.9701 3.77295 59.4857 3.25732C59.9779 2.76514 60.5873 2.51904 61.3138 2.51904C63.6107 2.51904 67.0677 2.51904 71.6849 2.51904C72.3881 2.51904 72.9974 2.76514 73.5131 3.25732C74.0052 3.77295 74.2513 4.38232 74.2513 5.08545C74.2513 6.25732 74.2513 7.9917 74.2513 10.2886C73.1029 10.2886 71.3802 10.2886 69.0834 10.2886ZM94.9935 2.51904C92.4154 2.51904 87.2357 2.51904 79.4545 2.51904C79.4545 2.94092 79.4545 3.58545 79.4545 4.45264C79.4545 5.31982 79.4545 6.39795 79.4545 7.68701C80.3217 7.68701 82.0443 7.68701 84.6224 7.68701C84.6224 11.1558 84.6224 18.0698 84.6224 28.4292C85.4896 28.4292 87.224 28.4292 89.8256 28.4292C89.8256 24.9839 89.8256 18.0698 89.8256 7.68701C90.974 7.68701 92.6967 7.68701 94.9935 7.68701C94.9935 6.53857 94.9935 4.81592 94.9935 2.51904ZM115.736 28.4292C114.587 28.4292 112.865 28.4292 110.568 28.4292C110.568 26.1323 110.568 22.6753 110.568 18.0581C109.419 18.0581 107.685 18.0581 105.365 18.0581C105.365 20.355 105.365 23.812 105.365 28.4292C104.216 28.4292 102.494 28.4292 100.197 28.4292C100.197 26.4839 100.197 23.5542 100.197 19.6401C100.197 18.0229 100.197 16.0073 100.197 13.5933C100.197 11.1558 100.197 8.31982 100.197 5.08545C100.197 4.38232 100.454 3.77295 100.97 3.25732C101.462 2.76514 102.072 2.51904 102.798 2.51904C105.095 2.51904 108.552 2.51904 113.169 2.51904C113.872 2.51904 114.482 2.76514 114.997 3.25732C115.49 3.77295 115.736 4.38232 115.736 5.08545C115.736 10.2886 115.736 18.0698 115.736 28.4292ZM110.568 12.8901C110.568 12.6792 110.568 12.3745 110.568 11.9761C110.568 11.0151 110.568 9.58545 110.568 7.68701C109.419 7.68701 107.685 7.68701 105.365 7.68701C105.365 8.83545 105.365 10.5698 105.365 12.8901C106.536 12.8901 108.271 12.8901 110.568 12.8901ZM133.911 15.4565C134.615 15.4565 135.224 15.7144 135.74 16.23C136.232 16.7222 136.478 17.3315 136.478 18.0581C136.478 20.355 136.478 23.812 136.478 28.4292C135.329 28.4292 133.607 28.4292 131.31 28.4292C131.31 26.1323 131.31 22.6753 131.31 18.0581C130.161 18.0581 128.427 18.0581 126.107 18.0581C126.107 20.355 126.107 23.812 126.107 28.4292C124.958 28.4292 123.236 28.4292 120.939 28.4292C120.939 26.1323 120.939 22.6753 120.939 18.0581C120.939 16.9097 120.939 15.187 120.939 12.8901C120.939 11.7417 120.939 10.3003 120.939 8.56592C120.939 6.83154 120.939 4.81592 120.939 2.51904C122.087 2.51904 123.81 2.51904 126.107 2.51904C127.841 2.51904 130.443 2.51904 133.911 2.51904C134.615 2.51904 135.224 2.76514 135.74 3.25732C136.232 3.77295 136.478 4.38232 136.478 5.08545C136.478 6.81982 136.478 9.42139 136.478 12.8901C136.478 13.5933 136.232 14.2026 135.74 14.7183C135.224 15.2104 134.615 15.4565 133.911 15.4565ZM131.31 12.8901C131.31 12.6792 131.31 12.3745 131.31 11.9761C131.31 11.0151 131.31 9.58545 131.31 7.68701C130.161 7.68701 128.427 7.68701 126.107 7.68701C126.107 8.83545 126.107 10.5698 126.107 12.8901C127.279 12.8901 129.013 12.8901 131.31 12.8901ZM157.22 2.51904C154.642 2.51904 149.462 2.51904 141.681 2.51904C141.681 2.94092 141.681 3.58545 141.681 4.45264C141.681 5.31982 141.681 6.39795 141.681 7.68701C142.548 7.68701 144.271 7.68701 146.849 7.68701C146.849 11.1558 146.849 18.0698 146.849 28.4292C147.716 28.4292 149.451 28.4292 152.052 28.4292C152.052 24.9839 152.052 18.0698 152.052 7.68701C153.201 7.68701 154.923 7.68701 157.22 7.68701C157.22 6.53857 157.22 4.81592 157.22 2.51904ZM193.536 10.2886C193.536 9.70264 193.536 8.83545 193.536 7.68701C192.388 7.68701 190.654 7.68701 188.333 7.68701C188.333 11.1558 188.333 16.3472 188.333 23.2612C189.505 23.2612 191.24 23.2612 193.536 23.2612C193.536 22.0894 193.536 20.355 193.536 18.0581C192.951 18.0581 192.083 18.0581 190.935 18.0581C190.935 16.9097 190.935 15.187 190.935 12.8901C192.669 12.8901 195.259 12.8901 198.704 12.8901C198.704 14.0386 198.704 15.7612 198.704 18.0581C198.704 19.7925 198.704 22.3823 198.704 25.8276C198.704 26.5542 198.458 27.1636 197.966 27.6558C197.451 28.1714 196.841 28.4292 196.138 28.4292C193.818 28.4292 190.361 28.4292 185.767 28.4292C185.04 28.4292 184.431 28.1714 183.939 27.6558C183.423 27.1636 183.165 26.5542 183.165 25.8276C183.165 24.0933 183.165 21.4917 183.165 18.0229C183.165 16.5933 183.165 14.812 183.165 12.6792C183.165 10.4995 183.165 7.96826 183.165 5.08545C183.165 4.38232 183.423 3.77295 183.939 3.25732C184.431 2.76514 185.04 2.51904 185.767 2.51904C188.064 2.51904 191.521 2.51904 196.138 2.51904C196.841 2.51904 197.451 2.76514 197.966 3.25732C198.458 3.77295 198.704 4.38232 198.704 5.08545C198.704 6.25732 198.704 7.9917 198.704 10.2886C197.556 10.2886 195.833 10.2886 193.536 10.2886ZM219.447 28.4292C218.298 28.4292 216.576 28.4292 214.279 28.4292C214.279 26.1323 214.279 22.6753 214.279 18.0581C213.13 18.0581 211.396 18.0581 209.076 18.0581C209.076 20.355 209.076 23.812 209.076 28.4292C207.927 28.4292 206.204 28.4292 203.908 28.4292C203.908 26.4839 203.908 23.5542 203.908 19.6401C203.908 18.0229 203.908 16.0073 203.908 13.5933C203.908 11.1558 203.908 8.31982 203.908 5.08545C203.908 4.38232 204.165 3.77295 204.681 3.25732C205.173 2.76514 205.783 2.51904 206.509 2.51904C208.806 2.51904 212.263 2.51904 216.88 2.51904C217.583 2.51904 218.193 2.76514 218.708 3.25732C219.201 3.77295 219.447 4.38232 219.447 5.08545C219.447 10.2886 219.447 18.0698 219.447 28.4292ZM214.279 12.8901C214.279 12.6792 214.279 12.3745 214.279 11.9761C214.279 11.0151 214.279 9.58545 214.279 7.68701C213.13 7.68701 211.396 7.68701 209.076 7.68701C209.076 8.83545 209.076 10.5698 209.076 12.8901C210.247 12.8901 211.982 12.8901 214.279 12.8901ZM250.56 5.08545C250.56 10.2886 250.56 18.0698 250.56 28.4292C249.411 28.4292 247.689 28.4292 245.392 28.4292C245.392 23.812 245.392 16.8979 245.392 7.68701C244.244 7.68701 242.509 7.68701 240.189 7.68701C240.189 12.3042 240.189 19.2183 240.189 28.4292C239.04 28.4292 237.318 28.4292 235.021 28.4292C235.021 23.812 235.021 16.8979 235.021 7.68701C233.872 7.68701 232.138 7.68701 229.818 7.68701C229.818 12.3042 229.818 19.2183 229.818 28.4292C228.669 28.4292 226.947 28.4292 224.65 28.4292C224.65 26.4839 224.65 23.5542 224.65 19.6401C224.65 18.0229 224.65 16.0073 224.65 13.5933C224.65 11.1558 224.65 8.31982 224.65 5.08545C224.65 4.38232 224.908 3.77295 225.423 3.25732C225.915 2.76514 226.525 2.51904 227.251 2.51904C228.962 2.51904 231.552 2.51904 235.021 2.51904C235.747 2.51904 236.357 2.76514 236.849 3.25732C237.365 3.77295 237.622 4.38232 237.622 5.08545C237.622 4.38232 237.869 3.77295 238.361 3.25732C238.876 2.76514 239.486 2.51904 240.189 2.51904C241.923 2.51904 244.525 2.51904 247.994 2.51904C248.697 2.51904 249.306 2.76514 249.822 3.25732C250.314 3.77295 250.56 4.38232 250.56 5.08545ZM271.302 7.68701C271.302 6.81982 271.302 5.09717 271.302 2.51904C269.591 2.51904 266.134 2.51904 260.931 2.51904C260.087 2.51904 258.365 2.51904 255.763 2.51904C255.763 3.38623 255.763 5.10889 255.763 7.68701C255.763 8.5542 255.763 10.2886 255.763 12.8901C255.763 13.7339 255.763 15.4565 255.763 18.0581C255.763 18.6206 255.763 19.3354 255.763 20.2026C255.763 21.0698 255.763 22.0894 255.763 23.2612C255.763 24.4097 255.763 26.1323 255.763 28.4292C256.911 28.4292 258.634 28.4292 260.931 28.4292C263.251 28.4292 266.708 28.4292 271.302 28.4292C271.302 27.2808 271.302 25.5581 271.302 23.2612C269.005 23.2612 265.548 23.2612 260.931 23.2612C260.931 22.0894 260.931 20.355 260.931 18.0581C262.665 18.0581 265.267 18.0581 268.736 18.0581C268.736 16.9097 268.736 15.187 268.736 12.8901C267.001 12.8901 264.4 12.8901 260.931 12.8901C260.931 11.7183 260.931 9.98389 260.931 7.68701C263.251 7.68701 266.708 7.68701 271.302 7.68701Z" fill="#F2AD43"/>
</g>
<defs>
<filter id="filter0_d" x="0" y="0" width="329.163" height="43.8588" filterUnits="userSpaceOnUse" color-interpolation-filters="sRGB">
<feFlood flood-opacity="0" result="BackgroundImageFix"/>
<feColorMatrix in="SourceAlpha" type="matrix" values="0 0 0 0 0 0 0 0 0 0 0 0 0 0 0 0 0 0 127 0"/>
<feOffset dy="8"/>
<feGaussianBlur stdDeviation="2"/>
<feColorMatrix type="matrix" values="0 0 0 0 0 0 0 0 0 0 0 0 0 0 0 0 0 0 0.25 0"/>
<feBlend mode="normal" in2="BackgroundImageFix" result="effect1_dropShadow"/>
<feBlend mode="normal" in="SourceGraphic" in2="effect1_dropShadow" result="shape"/>
</filter>
</defs>
</svg>
